<?xml version="1.0"?>
<svg xmlns="http://www.w3.org/2000/svg" xmlns:xlink="http://www.w3.org/1999/xlink" xmlns:svgjs="http://svgjs.com/svgjs" version="1.1" width="512" height="512" x="0" y="0" viewBox="0 0 477.801 477.801" style="enable-background:new 0 0 512 512" xml:space="preserve" class=""><g>
<g xmlns="http://www.w3.org/2000/svg">
	<g>
		<path d="M476.001,452.759h0.085L254.22,9.026c-5.03-8.436-15.946-11.197-24.382-6.168c-2.536,1.512-4.656,3.632-6.168,6.168    L1.804,452.759c-4.213,8.432-0.794,18.682,7.638,22.896c2.346,1.172,4.93,1.788,7.552,1.8h443.733    c9.426,0.004,17.07-7.633,17.075-17.059C477.802,457.745,477.186,455.13,476.001,452.759z M255.926,392.121    c0,9.426-7.641,17.067-17.067,17.067s-17.067-7.641-17.067-17.067v-17.067c0-9.426,7.641-17.067,17.067-17.067    s17.067,7.641,17.067,17.067V392.121z M255.926,306.788c0,9.426-7.641,17.067-17.067,17.067s-17.067-7.641-17.067-17.067V187.321    c0-9.426,7.641-17.067,17.067-17.067s17.067,7.641,17.067,17.067V306.788z" fill="#ef1f0a" data-original="#000000" style="" class=""/>
	</g>
</g>
<g xmlns="http://www.w3.org/2000/svg">
</g>
<g xmlns="http://www.w3.org/2000/svg">
</g>
<g xmlns="http://www.w3.org/2000/svg">
</g>
<g xmlns="http://www.w3.org/2000/svg">
</g>
<g xmlns="http://www.w3.org/2000/svg">
</g>
<g xmlns="http://www.w3.org/2000/svg">
</g>
<g xmlns="http://www.w3.org/2000/svg">
</g>
<g xmlns="http://www.w3.org/2000/svg">
</g>
<g xmlns="http://www.w3.org/2000/svg">
</g>
<g xmlns="http://www.w3.org/2000/svg">
</g>
<g xmlns="http://www.w3.org/2000/svg">
</g>
<g xmlns="http://www.w3.org/2000/svg">
</g>
<g xmlns="http://www.w3.org/2000/svg">
</g>
<g xmlns="http://www.w3.org/2000/svg">
</g>
<g xmlns="http://www.w3.org/2000/svg">
</g>
</g></svg>
